<?xml version="1.0" encoding="utf-8"?>
<!-- Generator: Adobe Illustrator 20.1.0, SVG Export Plug-In . SVG Version: 6.00 Build 0)  -->
<svg version="1.1" id="Layer_1" xmlns="http://www.w3.org/2000/svg" xmlns:xlink="http://www.w3.org/1999/xlink" x="0px" y="0px"
	 viewBox="0 0 1600 2372" style="enable-background:new 0 0 1600 2372;" xml:space="preserve">
<style type="text/css">
	.st0{opacity:0.12;fill:#007BFF;enable-background:new    ;}
	.st1{fill:#007BFF;}
	.st2{fill:none;stroke:#007BFF;stroke-width:4;stroke-linecap:round;stroke-miterlimit:10;}
	.st3{fill:none;stroke:#FFFFFF;stroke-width:2;stroke-miterlimit:10;}
</style>
<rect x="242.6" y="209.1" class="st0" width="138.7" height="138"/>
<rect x="381.4" y="209.1" class="st0" width="138.7" height="138"/>
<rect x="520.1" y="209.1" class="st0" width="138.7" height="138"/>
<rect x="658.8" y="209.1" class="st0" width="138.7" height="138"/>
<rect x="797.6" y="209.1" class="st0" width="138.7" height="138"/>
<rect x="936.3" y="209.1" class="st0" width="138.7" height="138"/>
<rect x="1075.1" y="209.1" class="st0" width="138.7" height="138"/>
<rect x="1213.8" y="209.1" class="st0" width="138.7" height="138"/>
<rect x="242.6" y="588.6" class="st0" width="138.7" height="138"/>
<rect x="381.4" y="588.6" class="st0" width="138.7" height="138"/>
<rect x="173.2" y="1004.1" class="st0" width="138.7" height="138"/>
<rect x="312" y="1004.1" class="st0" width="138.7" height="138"/>
<rect x="867" y="1004.1" class="st0" width="138.7" height="138"/>
<rect x="1005.7" y="1004.1" class="st0" width="138.7" height="138"/>
<rect x="1283.2" y="1004.1" class="st0" width="138.7" height="138"/>
<rect x="867" y="1383.6" class="st0" width="138.7" height="138"/>
<rect x="208.7" y="1383.6" class="st0" width="138.7" height="138"/>
<rect x="520.1" y="588.6" class="st0" width="138.7" height="138"/>
<g>
	<path class="st1" d="M796.6,589.5v136.1H659.8V589.5H796.6 M797.6,588.6H658.8v138h138.7L797.6,588.6L797.6,588.6z"/>
</g>
<g>
	<path class="st1" d="M588.5,1005v136.1H451.7V1005H588.5 M589.5,1004.1H450.7v138h138.7L589.5,1004.1L589.5,1004.1z"/>
</g>
<g>
	<path class="st1" d="M1282.2,1005v136.1h-136.9V1005H1282.2 M1283.2,1004.1h-138.7v138h138.7V1004.1L1283.2,1004.1z"/>
</g>
<g>
	<path class="st1" d="M1143.5,1384.5v136.1h-136.9v-136.1H1143.5 M1144.4,1383.6h-138.7v138h138.7V1383.6L1144.4,1383.6z"/>
</g>
<g>
	<path class="st1" d="M1524.4,1384.5v136.1h-136.9v-136.1H1524.4 M1525.3,1383.6h-138.7v138h138.7V1383.6L1525.3,1383.6z"/>
</g>
<g>
	<path class="st1" d="M901.9,1737v136.1H765V1737H901.9 M902.8,1736H764.1v138h138.7V1736L902.8,1736z"/>
</g>
<g>
	<path class="st1" d="M519.2,1737v136.1H382.3V1737H519.2 M520.1,1736H381.4v138h138.7V1736L520.1,1736z"/>
</g>
<g>
	<path class="st1" d="M207.8,1384.5v136.1H70.9v-136.1H207.8 M208.7,1383.6H70v138h138.7V1383.6L208.7,1383.6z"/>
</g>
<rect x="797.6" y="588.6" class="st0" width="138.7" height="138"/>
<rect x="936.3" y="588.6" class="st0" width="138.7" height="138"/>
<rect x="1075.1" y="588.6" class="st0" width="138.7" height="138"/>
<rect x="1213.8" y="588.6" class="st0" width="138.7" height="138"/>
<g>
	<path class="st1" d="M382.8,2077v136.1H246V2077H382.8 M383.8,2076H245v138h138.7L383.8,2076L383.8,2076z"/>
</g>
<g>
	<path class="st1" d="M521.6,2077v136.1H384.7V2077H521.6 M522.5,2076H383.8v138h138.7V2076L522.5,2076z"/>
</g>
<g>
	<path class="st1" d="M660.3,2077v136.1H523.5V2077H660.3 M661.3,2076H522.5v138h138.7L661.3,2076L661.3,2076z"/>
</g>
<g>
	<g>
		<path class="st1" d="M799.1,2077v136.1H662.2V2077H799.1 M800,2076H661.3v138H800V2076L800,2076z"/>
	</g>
</g>
<g>
	<path class="st1" d="M937.8,2077v136.1H800.9V2077H937.8 M938.7,2076H800v138h138.7V2076L938.7,2076z"/>
</g>
<g>
	<path class="st1" d="M1076.5,2077v136.1H939.7V2077H1076.5 M1077.5,2076H938.7v138h138.7L1077.5,2076L1077.5,2076z"/>
</g>
<g>
	<path class="st1" d="M1215.3,2077v136.1h-136.9V2077H1215.3 M1216.2,2076h-138.7v138h138.7V2076L1216.2,2076z"/>
</g>
<g>
	<path class="st1" d="M1354,2077v136.1h-136.9V2077H1354 M1355,2076h-138.7v138H1355V2076L1355,2076z"/>
</g>
<g>
	<path pointer-events="none" class="st2" d="M523.1,757.7l-66.7,130"/>
	<path class="st2" d="M466,890.8l-9.8,3.1c-2,0.6-4.2-0.4-4.8-2.5l-3.1-9.8"/>
</g>
<g>
	<path pointer-events="none" class="st2" d="M797.4,378l0.3,132.6"/>
	<path class="st2" d="M807.6,508.9l-7.3,7.2c-1.5,1.5-3.9,1.5-5.4,0l-7.2-7.3"/>
</g>
<g>
	<path pointer-events="none" class="st2" d="M315.5,1172.9l-66.7,130"/>
	<path class="st2" d="M258.3,1306l-9.8,3.1c-2,0.6-4.2-0.4-4.8-2.5l-3.1-9.8"/>
</g>
<g>
	<path pointer-events="none" class="st2" d="M1210.2,887.7l-66.7-130"/>
	<path class="st2" d="M1218.3,881.6l-3.1,9.8c-0.6,2-2.8,3.1-4.8,2.5l-9.8-3.1"/>
</g>
<g>
	<path pointer-events="none" class="st2" d="M1370.2,1299.1l-88-116.6"/>
	<path class="st2" d="M1377.1,1291.8l-1.4,10.2c-0.3,2.1-2.2,3.5-4.3,3.3l-10.2-1.4"/>
</g>
<g>
	<path pointer-events="none" class="st2" d="M1010,1169.8l-56.3,134.8"/>
	<path class="st2" d="M963.5,1306.9l-9.5,3.8c-2,0.8-4.2-0.1-5-2.1l-3.8-9.5"/>
</g>
<g>
	<path pointer-events="none" class="st2" d="M893.2,1539.9l-44.6,117.3"/>
	<path class="st2" d="M858.4,1659.3l-9.4,4.1c-1.9,0.9-4.2,0-5-1.9l-4.1-9.4"/>
</g>
<g>
	<path pointer-events="none" class="st2" d="M421.4,1648.2l-93.8-103.1"/>
	<path class="st2" d="M427.7,1640.3l-0.4,10.2c-0.1,2.1-1.9,3.7-4,3.6l-10.2-0.4"/>
</g>
<g>
	<path d="M324.5,174.4c0,11-4.8,15.9-11.3,15.9c-6.5,0-11.2-4.8-11.2-15.9s4.8-15.9,11.2-15.9C319.7,158.5,324.5,163.4,324.5,174.4z
		 M320.7,174.4c0-7.6-2.3-12.5-7.4-12.5c-5.1,0-7.4,4.9-7.4,12.5c0,7.6,2.3,12.4,7.4,12.4C318.4,186.9,320.7,182,320.7,174.4z"/>
	<path d="M438.8,186.3h7.2v-23.1h-0.9l-6.4,4.3v-4l6.4-4.3h4.8v27.2h6.7v3.4h-17.8V186.3z"/>
	<path d="M581.9,167.6c0.3-6.1,4.8-9,10.2-9c5.7,0,9.9,3.2,9.9,9.3c0,4.1-3.1,8-6.8,11l-7.7,6.5v1H603v3.4h-21v-4.3l4.5-3.7
		c2.4-2,5.3-4.4,6.9-5.9c2.1-1.9,4.8-4.4,4.8-8c0-3.8-2.4-5.9-6.2-5.9c-3.4,0-5.9,1.8-6.2,5.6H581.9z"/>
	<path d="M735.6,159.1v4.3L728,170v0.9c5.2,0.1,9.1,3.4,9.1,9.3c0,6.3-4.5,10.1-10.8,10.1c-6.2,0-10.3-3.9-10.7-9.1h3.8
		c0.3,3.5,3.2,5.7,6.9,5.7c4.2,0,6.9-2.5,6.9-6.7c0-4-2.4-6.5-6.9-6.5c-1.1,0-2,0.1-2.7,0.3v-4.1l7.5-6.5v-1h-13.4v-3.3H735.6z"/>
	<path d="M873.2,179.1v3.4H869v7.2h-3.8v-7.2h-15.1v-4.4l13.5-19h5.4v20H873.2z M865.3,179.1v-15.7h-1l-10.2,14.7v1H865.3z"/>
	<path d="M1008.1,179.4c0,6.6-4.3,10.9-10.5,10.9c-6.7,0-10.3-4-10.7-9.1h3.8c0.5,3.8,3,5.7,6.7,5.7c4.1,0,6.8-2.8,6.8-7.3
		c0-4.2-2.6-7.2-6.7-7.2c-2.8,0-4.8,1-6.1,2.9h-3.8l1.4-16.1h17.5v3.3h-14.4l-0.7,8.8h1c1.4-1.3,3.1-2.1,5.9-2.1
		C1004.4,169.1,1008.1,173.7,1008.1,179.4z"/>
	<path d="M1155.9,179.8c0,5.8-3.9,10.5-10.4,10.5s-11.2-4-11.2-15c0-9.3,3.6-16.7,11.6-16.7c5.2,0,8.5,3.1,9.2,7.3h-3.8
		c-0.7-2.6-2.4-3.9-5.4-3.9c-4.9,0-7.7,4.1-7.9,10.8h1c1-1.3,3.5-3,7.2-3C1151.7,169.8,1155.9,173.9,1155.9,179.8z M1152.1,179.9
		c0-4.5-3-6.8-6.7-6.8c-3.7,0-6.6,2.4-6.6,6.7c0,4.5,3,7,6.7,7C1149.2,186.9,1152.1,184.5,1152.1,179.9z"/>
	<path d="M1275.4,189.7h-4l13.3-26.3v-1h-15.5v-3.3h19.5v4.3L1275.4,189.7z"/>
</g>
<g>
	<path d="M324.5,2038.6c0,11-4.8,15.9-11.3,15.9c-6.5,0-11.2-4.8-11.2-15.9s4.8-15.9,11.2-15.9
		C319.7,2022.7,324.5,2027.6,324.5,2038.6z M320.7,2038.6c0-7.6-2.3-12.5-7.4-12.5c-5.1,0-7.4,4.9-7.4,12.5c0,7.6,2.3,12.4,7.4,12.4
		C318.4,2051.1,320.7,2046.2,320.7,2038.6z"/>
	<path d="M438.8,2050.5h7.2v-23.1h-0.9l-6.4,4.3v-4l6.4-4.3h4.8v27.2h6.7v3.4h-17.8V2050.5z"/>
	<path d="M581.9,2031.8c0.3-6.1,4.8-9,10.2-9c5.7,0,9.9,3.2,9.9,9.3c0,4.1-3.1,8-6.8,11l-7.7,6.5v1H603v3.4h-21v-4.3l4.5-3.7
		c2.4-2,5.3-4.4,6.9-5.9c2.1-1.9,4.8-4.4,4.8-8c0-3.8-2.4-5.9-6.2-5.9c-3.4,0-5.9,1.8-6.2,5.6H581.9z"/>
	<path d="M735.6,2023.3v4.3l-7.6,6.6v0.9c5.2,0.1,9.1,3.4,9.1,9.3c0,6.3-4.5,10.1-10.8,10.1c-6.2,0-10.3-3.9-10.7-9.1h3.8
		c0.3,3.5,3.2,5.7,6.9,5.7c4.2,0,6.9-2.5,6.9-6.7c0-4-2.4-6.5-6.9-6.5c-1.1,0-2,0.1-2.7,0.3v-4.1l7.5-6.5v-1h-13.4v-3.3H735.6z"/>
	<path d="M873.2,2043.3v3.4H869v7.2h-3.8v-7.2h-15.1v-4.4l13.5-19h5.4v20H873.2z M865.3,2043.3v-15.7h-1l-10.2,14.7v1H865.3z"/>
	<path d="M1008.1,2043.5c0,6.6-4.3,10.9-10.5,10.9c-6.7,0-10.3-4-10.7-9.1h3.8c0.5,3.8,3,5.7,6.7,5.7c4.1,0,6.8-2.8,6.8-7.3
		c0-4.2-2.6-7.2-6.7-7.2c-2.8,0-4.8,1-6.1,2.9h-3.8l1.4-16.1h17.5v3.3h-14.4l-0.7,8.8h1c1.4-1.3,3.1-2.1,5.9-2.1
		C1004.4,2033.3,1008.1,2037.9,1008.1,2043.5z"/>
	<path d="M1155.9,2043.9c0,5.8-3.9,10.5-10.4,10.5s-11.2-4-11.2-15c0-9.3,3.6-16.7,11.6-16.7c5.2,0,8.5,3.1,9.2,7.3h-3.8
		c-0.7-2.6-2.4-3.9-5.4-3.9c-4.9,0-7.7,4.1-7.9,10.8h1c1-1.3,3.5-3,7.2-3C1151.7,2034,1155.9,2038.1,1155.9,2043.9z M1152.1,2044.1
		c0-4.5-3-6.8-6.7-6.8c-3.7,0-6.6,2.4-6.6,6.7c0,4.5,3,7,6.7,7C1149.2,2051.1,1152.1,2048.7,1152.1,2044.1z"/>
	<path d="M1275.4,2053.9h-4l13.3-26.3v-1h-15.5v-3.3h19.5v4.3L1275.4,2053.9z"/>
</g>
<g>
	<path d="M943.3,975.1v3.4h-4.2v7.2h-3.8v-7.2h-15.1v-4.4l13.5-19h5.4v20H943.3z M935.4,975.1v-15.7h-1l-10.2,14.7v1H935.4z"/>
	<path d="M1078.2,975.4c0,6.6-4.3,10.9-10.5,10.9c-6.7,0-10.3-4-10.7-9.1h3.8c0.5,3.8,3,5.7,6.7,5.7c4.1,0,6.8-2.8,6.8-7.3
		c0-4.2-2.6-7.2-6.7-7.2c-2.8,0-4.8,1-6.1,2.9h-3.8l1.4-16.1h17.5v3.3h-14.4l-0.7,8.8h1c1.4-1.3,3.1-2.1,5.9-2.1
		C1074.5,965.1,1078.2,969.7,1078.2,975.4z"/>
	<path d="M1226,975.8c0,5.8-3.9,10.5-10.4,10.5c-6.5,0-11.2-4-11.2-15c0-9.3,3.6-16.7,11.6-16.7c5.2,0,8.5,3.1,9.2,7.3h-3.8
		c-0.7-2.6-2.4-3.9-5.4-3.9c-4.9,0-7.7,4.1-7.9,10.8h1c1-1.3,3.5-3,7.2-3C1221.8,965.8,1226,969.9,1226,975.8z M1222.1,975.9
		c0-4.5-3-6.8-6.7-6.8c-3.7,0-6.6,2.4-6.6,6.7c0,4.5,3,7,6.7,7S1222.1,980.5,1222.1,975.9z"/>
	<path d="M1345.5,985.7h-4l13.3-26.3v-1h-15.5v-3.3h19.5v4.3L1345.5,985.7z"/>
</g>
<g>
	<path d="M1445.9,1363.7h-4l13.3-26.3v-1h-15.5v-3.3h19.5v4.3L1445.9,1363.7z"/>
</g>
<g>
	<path d="M943.3,1353.1v3.4h-4.2v7.2h-3.8v-7.2h-15.1v-4.4l13.5-19h5.4v20H943.3z M935.4,1353.1v-15.7h-1l-10.2,14.7v1H935.4z"/>
	<path d="M1078.2,1353.4c0,6.6-4.3,10.9-10.5,10.9c-6.7,0-10.3-4-10.7-9.1h3.8c0.5,3.8,3,5.7,6.7,5.7c4.1,0,6.8-2.8,6.8-7.3
		c0-4.2-2.6-7.2-6.7-7.2c-2.8,0-4.8,1-6.1,2.9h-3.8l1.4-16.1h17.5v3.3h-14.4l-0.7,8.8h1c1.4-1.3,3.1-2.1,5.9-2.1
		C1074.5,1343.1,1078.2,1347.7,1078.2,1353.4z"/>
</g>
<g>
	<path d="M323.5,554.4c0,11-4.8,15.9-11.3,15.9c-6.5,0-11.2-4.8-11.2-15.9s4.8-15.9,11.2-15.9C318.7,538.5,323.5,543.4,323.5,554.4z
		 M319.7,554.4c0-7.6-2.3-12.5-7.4-12.5c-5.1,0-7.4,4.9-7.4,12.5c0,7.6,2.3,12.4,7.4,12.4C317.4,566.9,319.7,562,319.7,554.4z"/>
	<path d="M437.8,566.3h7.2v-23.1h-0.9l-6.4,4.3v-4l6.4-4.3h4.8v27.2h6.7v3.4h-17.8V566.3z"/>
	<path d="M580.9,547.6c0.3-6.1,4.8-9,10.2-9c5.7,0,9.9,3.2,9.9,9.3c0,4.1-3.1,8-6.8,11l-7.7,6.5v1H602v3.4h-21v-4.3l4.5-3.7
		c2.4-2,5.3-4.4,6.9-5.9c2.1-1.9,4.8-4.4,4.8-8c0-3.8-2.4-5.9-6.2-5.9c-3.4,0-5.9,1.8-6.2,5.6H580.9z"/>
	<path d="M734.6,539.1v4.3L727,550v0.9c5.2,0.1,9.1,3.4,9.1,9.3c0,6.3-4.5,10.1-10.8,10.1c-6.2,0-10.3-3.9-10.7-9.1h3.8
		c0.3,3.5,3.2,5.7,6.9,5.7c4.2,0,6.9-2.5,6.9-6.7c0-4-2.4-6.5-6.9-6.5c-1.1,0-2,0.1-2.7,0.3v-4.1l7.5-6.5v-1h-13.4v-3.3H734.6z"/>
	<path d="M872.2,559.1v3.4H868v7.2h-3.8v-7.2h-15.1v-4.4l13.5-19h5.4v20H872.2z M864.3,559.1v-15.7h-1l-10.2,14.7v1H864.3z"/>
	<path d="M1007.1,559.4c0,6.6-4.3,10.9-10.5,10.9c-6.7,0-10.3-4-10.7-9.1h3.8c0.5,3.8,3,5.7,6.7,5.7c4.1,0,6.8-2.8,6.8-7.3
		c0-4.2-2.6-7.2-6.7-7.2c-2.8,0-4.8,1-6.1,2.9h-3.8l1.4-16.1h17.5v3.3h-14.4l-0.7,8.8h1c1.4-1.3,3.1-2.1,5.9-2.1
		C1003.4,549.1,1007.1,553.7,1007.1,559.4z"/>
	<path d="M1154.9,559.8c0,5.8-3.9,10.5-10.4,10.5s-11.2-4-11.2-15c0-9.3,3.6-16.7,11.6-16.7c5.2,0,8.5,3.1,9.2,7.3h-3.8
		c-0.7-2.6-2.4-3.9-5.4-3.9c-4.9,0-7.7,4.1-7.9,10.8h1c1-1.3,3.5-3,7.2-3C1150.7,549.8,1154.9,553.9,1154.9,559.8z M1151.1,559.9
		c0-4.5-3-6.8-6.7-6.8c-3.7,0-6.6,2.4-6.6,6.7c0,4.5,3,7,6.7,7C1148.2,566.9,1151.1,564.5,1151.1,559.9z"/>
	<path d="M1274.4,569.7h-4l13.3-26.3v-1h-15.5v-3.3h19.5v4.3L1274.4,569.7z"/>
</g>
<g>
	<path d="M255.5,970.4c0,11-4.8,15.9-11.3,15.9c-6.5,0-11.2-4.8-11.2-15.9s4.8-15.9,11.2-15.9C250.7,954.5,255.5,959.4,255.5,970.4z
		 M251.7,970.4c0-7.6-2.3-12.5-7.4-12.5c-5.1,0-7.4,4.9-7.4,12.5c0,7.6,2.3,12.4,7.4,12.4C249.4,982.9,251.7,978,251.7,970.4z"/>
	<path d="M369.8,982.3h7.2v-23.1h-0.9l-6.4,4.3v-4l6.4-4.3h4.8v27.2h6.7v3.4h-17.8V982.3z"/>
	<path d="M512.9,963.6c0.3-6.1,4.8-9,10.2-9c5.7,0,9.9,3.2,9.9,9.3c0,4.1-3.1,8-6.8,11l-7.7,6.5v1H534v3.4h-21v-4.3l4.5-3.7
		c2.4-2,5.3-4.4,6.9-5.9c2.1-1.9,4.8-4.4,4.8-8c0-3.8-2.4-5.9-6.2-5.9c-3.4,0-5.9,1.8-6.2,5.6H512.9z"/>
</g>
<g>
	<path d="M153.5,1348.4c0,11-4.8,15.9-11.3,15.9c-6.5,0-11.2-4.8-11.2-15.9c0-11,4.8-15.9,11.2-15.9
		C148.7,1332.5,153.5,1337.4,153.5,1348.4z M149.7,1348.4c0-7.6-2.3-12.5-7.4-12.5c-5.1,0-7.4,4.9-7.4,12.5c0,7.6,2.3,12.4,7.4,12.4
		C147.4,1360.9,149.7,1356,149.7,1348.4z"/>
	<path d="M267.8,1360.3h7.2v-23.1h-0.9l-6.4,4.3v-4l6.4-4.3h4.8v27.2h6.7v3.4h-17.8V1360.3z"/>
</g>
<g>
	<path d="M441.7,1718.3h7.2v-23.1h-0.9l-6.4,4.3v-4l6.4-4.3h4.8v27.2h6.7v3.4h-17.8V1718.3z"/>
</g>
<g>
	<path d="M843.4,1711.1v3.4h-4.2v7.2h-3.8v-7.2h-15.1v-4.4l13.5-19h5.4v20H843.4z M835.5,1711.1v-15.7h-1l-10.2,14.7v1H835.5z"/>
</g>
<g>
	<path d="M290.2,288.3h7.2v-23.1h-0.9l-6.4,4.3v-4l6.4-4.3h4.8v27.2h6.7v3.4h-17.8V288.3z"/>
	<path d="M318,291.7h-4l13.3-26.3v-1h-15.5v-3.3h19.5v4.3L318,291.7z"/>
	<path d="M420.9,269.6c0.3-6.1,4.8-9,10.2-9c5.7,0,9.9,3.2,9.9,9.3c0,4.1-3.1,8-6.8,11l-7.7,6.5v1h15.4v3.4h-21v-4.3l4.5-3.7
		c2.4-2,5.3-4.4,6.9-5.9c2.1-1.9,4.8-4.4,4.8-8c0-3.8-2.4-5.9-6.2-5.9c-3.4,0-5.9,1.8-6.2,5.6H420.9z"/>
	<path d="M467.7,281.4c0,6.6-4.3,10.9-10.5,10.9c-6.7,0-10.3-4-10.7-9.1h3.8c0.5,3.8,3,5.7,6.7,5.7c4.1,0,6.8-2.8,6.8-7.3
		c0-4.2-2.6-7.2-6.7-7.2c-2.8,0-4.8,1-6.1,2.9h-3.8l1.4-16.1H466v3.3h-14.4l-0.7,8.8h1c1.4-1.3,3.1-2.1,5.9-2.1
		C463.9,271.1,467.7,275.7,467.7,281.4z"/>
	<path d="M569.7,288.3h7.2v-23.1h-0.9l-6.4,4.3v-4l6.4-4.3h4.8v27.2h6.7v3.4h-17.8V288.3z"/>
	<path d="M591.7,288.3h7.2v-23.1h-0.9l-6.4,4.3v-4l6.4-4.3h4.8v27.2h6.7v3.4h-17.8V288.3z"/>
	<path d="M710.8,288.3h7.2v-23.1h-0.9l-6.4,4.3v-4l6.4-4.3h4.8v27.2h6.7v3.4h-17.8V288.3z"/>
	<path d="M754.3,281.8c0,5.8-3.9,10.5-10.4,10.5s-11.2-4-11.2-15c0-9.3,3.6-16.7,11.6-16.7c5.2,0,8.5,3.1,9.2,7.3h-3.8
		c-0.7-2.6-2.4-3.9-5.4-3.9c-4.9,0-7.7,4.1-7.9,10.8h1c1-1.3,3.5-3,7.2-3C750.1,271.8,754.3,275.9,754.3,281.8z M750.5,281.9
		c0-4.5-3-6.8-6.7-6.8c-3.7,0-6.6,2.4-6.6,6.7c0,4.5,3,7,6.7,7C747.6,288.9,750.5,286.5,750.5,281.9z"/>
	<path d="M843.8,288.3h7.2v-23.1h-0.9l-6.4,4.3v-4l6.4-4.3h4.8v27.2h6.7v3.4h-17.8V288.3z"/>
	<path d="M888.1,276.4c0,11-4.8,15.9-11.3,15.9c-6.5,0-11.2-4.8-11.2-15.9s4.8-15.9,11.2-15.9C883.3,260.5,888.1,265.4,888.1,276.4z
		 M884.2,276.4c0-7.6-2.3-12.5-7.4-12.5c-5.1,0-7.4,4.9-7.4,12.5c0,7.6,2.3,12.4,7.4,12.4C881.9,288.9,884.2,284,884.2,276.4z"/>
	<path d="M978.1,288.3h7.2v-23.1h-0.9l-6.4,4.3v-4l6.4-4.3h4.8v27.2h6.7v3.4h-17.8V288.3z"/>
	<path d="M1018.8,261.1v4.3l-7.6,6.6v0.9c5.2,0.1,9.1,3.4,9.1,9.3c0,6.3-4.5,10.1-10.8,10.1c-6.2,0-10.3-3.9-10.7-9.1h3.8
		c0.3,3.5,3.2,5.7,6.9,5.7c4.2,0,6.9-2.5,6.9-6.7c0-4-2.4-6.5-6.9-6.5c-1.1,0-2,0.1-2.7,0.3v-4.1l7.5-6.5v-1h-13.4v-3.3H1018.8z"/>
	<path d="M1121.8,269.6c0.3-6.1,4.8-9,10.2-9c5.7,0,9.9,3.2,9.9,9.3c0,4.1-3.1,8-6.8,11l-7.7,6.5v1h15.4v3.4h-21v-4.3l4.5-3.7
		c2.4-2,5.3-4.4,6.9-5.9c2.1-1.9,4.8-4.4,4.8-8c0-3.8-2.4-5.9-6.2-5.9c-3.5,0-5.9,1.8-6.2,5.6H1121.8z"/>
	<path d="M1147.2,269.6c0.3-6.1,4.8-9,10.2-9c5.7,0,9.9,3.2,9.9,9.3c0,4.1-3.1,8-6.8,11l-7.7,6.5v1h15.4v3.4h-21v-4.3l4.5-3.7
		c2.4-2,5.3-4.4,6.9-5.9c2.1-1.9,4.8-4.4,4.8-8c0-3.8-2.4-5.9-6.2-5.9c-3.5,0-5.9,1.8-6.2,5.6H1147.2z"/>
	<path d="M1257.9,288.3h7.2v-23.1h-0.9l-6.4,4.3v-4l6.4-4.3h4.8v27.2h6.7v3.4h-17.8V288.3z"/>
	<path d="M1302.1,281.1v3.4h-4.2v7.2h-3.8v-7.2H1279v-4.4l13.5-19h5.4v20H1302.1z M1294.2,281.1v-15.7h-1l-10.2,14.7v1H1294.2z"/>
</g>
<g>
	<path d="M290.2,2154.3h7.2v-23.1h-0.9l-6.4,4.3v-4l6.4-4.3h4.8v27.2h6.7v3.4h-17.8V2154.3z"/>
	<path d="M334.5,2142.4c0,11-4.8,15.9-11.3,15.9c-6.5,0-11.2-4.8-11.2-15.9c0-11,4.8-15.9,11.2-15.9
		C329.7,2126.5,334.5,2131.4,334.5,2142.4z M330.7,2142.4c0-7.6-2.3-12.5-7.4-12.5c-5.1,0-7.4,4.9-7.4,12.5c0,7.6,2.3,12.4,7.4,12.4
		C328.4,2154.9,330.7,2150,330.7,2142.4z"/>
	<path d="M429.5,2154.3h7.2v-23.1h-0.9l-6.4,4.3v-4l6.4-4.3h4.8v27.2h6.7v3.4h-17.8V2154.3z"/>
	<path d="M451.5,2154.3h7.2v-23.1h-0.9l-6.4,4.3v-4l6.4-4.3h4.8v27.2h6.7v3.4h-17.8V2154.3z"/>
	<path d="M569.7,2154.3h7.2v-23.1H576l-6.4,4.3v-4l6.4-4.3h4.8v27.2h6.7v3.4h-17.8V2154.3z"/>
	<path d="M610.4,2127.1v4.3l-7.6,6.6v0.9c5.2,0.1,9.1,3.4,9.1,9.3c0,6.3-4.5,10.1-10.8,10.1c-6.2,0-10.4-3.9-10.7-9.1h3.8
		c0.3,3.5,3.2,5.7,6.9,5.7c4.2,0,6.9-2.5,6.9-6.7c0-4-2.4-6.5-6.9-6.5c-1.1,0-2,0.1-2.7,0.3v-4.1l7.5-6.5v-1h-13.4v-3.3H610.4z"/>
	<path d="M709.7,2154.3h7.2v-23.1H716l-6.4,4.3v-4l6.4-4.3h4.8v27.2h6.7v3.4h-17.8V2154.3z"/>
	<path d="M753.9,2147.1v3.4h-4.2v7.2h-3.8v-7.2h-15.1v-4.4l13.5-19h5.4v20H753.9z M746,2147.1v-15.7h-1l-10.2,14.7v1H746z"/>
	<path d="M843.4,2154.3h7.2v-23.1h-0.9l-6.4,4.3v-4l6.4-4.3h4.8v27.2h6.7v3.4h-17.8V2154.3z"/>
	<path d="M886.9,2147.8c0,5.8-3.9,10.5-10.4,10.5s-11.2-4-11.2-15c0-9.3,3.6-16.7,11.6-16.7c5.2,0,8.5,3.1,9.2,7.3h-3.8
		c-0.7-2.6-2.4-3.9-5.4-3.9c-4.9,0-7.7,4.1-7.9,10.8h1c1-1.3,3.5-3,7.2-3C882.7,2137.8,886.9,2141.9,886.9,2147.8z M883,2147.9
		c0-4.5-3-6.8-6.7-6.8c-3.7,0-6.6,2.4-6.6,6.7c0,4.5,3,7,6.7,7C880.1,2154.9,883,2152.5,883,2147.9z"/>
	<path d="M982.3,2154.3h7.2v-23.1h-0.9l-6.4,4.3v-4l6.4-4.3h4.8v27.2h6.7v3.4h-17.8V2154.3z"/>
	<path d="M1010.1,2157.7h-4l13.3-26.3v-1h-15.5v-3.3h19.5v4.3L1010.1,2157.7z"/>
	<path d="M1119.1,2135.6c0.3-6.1,4.8-9,10.2-9c5.7,0,9.9,3.2,9.9,9.3c0,4.1-3.1,8-6.8,11l-7.7,6.5v1h15.4v3.4h-21v-4.3l4.5-3.7
		c2.4-2,5.3-4.4,6.9-5.9c2.1-1.9,4.8-4.4,4.8-8c0-3.8-2.4-5.9-6.2-5.9c-3.5,0-5.9,1.8-6.2,5.6H1119.1z"/>
	<path d="M1144.6,2135.6c0.3-6.1,4.8-9,10.2-9c5.7,0,9.9,3.2,9.9,9.3c0,4.1-3.1,8-6.8,11l-7.7,6.5v1h15.4v3.4h-21v-4.3l4.5-3.7
		c2.4-2,5.3-4.4,6.9-5.9c2.1-1.9,4.8-4.4,4.8-8c0-3.8-2.4-5.9-6.2-5.9c-3.5,0-5.9,1.8-6.2,5.6H1144.6z"/>
	<path d="M1255,2135.6c0.3-6.1,4.8-9,10.2-9c5.7,0,9.9,3.2,9.9,9.3c0,4.1-3.1,8-6.8,11l-7.7,6.5v1h15.4v3.4h-21v-4.3l4.5-3.7
		c2.4-2,5.3-4.4,6.9-5.9c2.1-1.9,4.8-4.4,4.8-8c0-3.8-2.4-5.9-6.2-5.9c-3.5,0-5.9,1.8-6.2,5.6H1255z"/>
	<path d="M1301.7,2147.4c0,6.6-4.3,10.9-10.5,10.9c-6.7,0-10.3-4-10.7-9.1h3.8c0.5,3.8,3,5.7,6.7,5.7c4.1,0,6.8-2.8,6.8-7.3
		c0-4.2-2.6-7.2-6.7-7.2c-2.8,0-4.8,1-6.1,2.9h-3.8l1.4-16.1h17.5v3.3h-14.4l-0.7,8.8h1c1.4-1.3,3.1-2.1,5.9-2.1
		C1298,2137.1,1301.7,2141.7,1301.7,2147.4z"/>
</g>
<g>
	<path d="M289.2,666.2h7.2V643h-0.9l-6.4,4.3v-4l6.4-4.3h4.8v27.2h6.7v3.4h-17.8V666.2z"/>
	<path d="M311.2,666.2h7.2V643h-0.9l-6.4,4.3v-4l6.4-4.3h4.8v27.2h6.7v3.4h-17.8V666.2z"/>
	<path d="M430.4,666.2h7.2V643h-0.9l-6.4,4.3v-4l6.4-4.3h4.8v27.2h6.7v3.4h-17.8V666.2z"/>
	<path d="M474.7,654.3c0,11-4.8,15.9-11.3,15.9c-6.5,0-11.2-4.8-11.2-15.9s4.8-15.9,11.2-15.9C469.9,638.4,474.7,643.3,474.7,654.3z
		 M470.8,654.3c0-7.6-2.3-12.5-7.4-12.5c-5.1,0-7.4,4.9-7.4,12.5c0,7.6,2.3,12.4,7.4,12.4C468.5,666.8,470.8,661.9,470.8,654.3z"/>
	<path d="M564.7,666.2h7.2V643H571l-6.4,4.3v-4l6.4-4.3h4.8v27.2h6.7v3.4h-17.8V666.2z"/>
	<path d="M605.4,639v4.3l-7.6,6.6v0.9c5.2,0.1,9.1,3.4,9.1,9.3c0,6.3-4.5,10.1-10.8,10.1c-6.2,0-10.4-3.9-10.7-9.1h3.8
		c0.3,3.5,3.2,5.7,6.9,5.7c4.2,0,6.9-2.5,6.9-6.7c0-4-2.4-6.5-6.9-6.5c-1.1,0-2,0.1-2.7,0.3v-4.1l7.5-6.5v-1h-13.4V639H605.4z"/>
	<path d="M708.7,666.2h7.2V643H715l-6.4,4.3v-4l6.4-4.3h4.8v27.2h6.7v3.4h-17.8V666.2z"/>
	<path d="M752.9,659v3.4h-4.2v7.2h-3.8v-7.2h-15.1v-4.4l13.5-19h5.4v20H752.9z M745,659v-15.7h-1l-10.2,14.7v1H745z"/>
	<path d="M842.4,666.2h7.2V643h-0.9l-6.4,4.3v-4l6.4-4.3h4.8v27.2h6.7v3.4h-17.8V666.2z"/>
	<path d="M870.2,669.6h-4l13.3-26.3v-1H864V639h19.5v4.3L870.2,669.6z"/>
	<path d="M981.1,647.5c0.3-6.1,4.8-9,10.2-9c5.7,0,9.9,3.2,9.9,9.3c0,4.1-3.1,8-6.8,11l-7.7,6.5v1h15.4v3.4h-21v-4.3l4.5-3.7
		c2.4-2,5.3-4.4,6.9-5.9c2.1-1.9,4.8-4.4,4.8-8c0-3.8-2.4-5.9-6.2-5.9c-3.5,0-5.9,1.8-6.2,5.6H981.1z"/>
	<path d="M1027.9,659.2c0,6.6-4.3,10.9-10.5,10.9c-6.7,0-10.3-4-10.7-9.1h3.8c0.5,3.8,3,5.7,6.7,5.7c4.1,0,6.8-2.8,6.8-7.3
		c0-4.2-2.6-7.2-6.7-7.2c-2.8,0-4.8,1-6.1,2.9h-3.8l1.4-16.1h17.5v3.3h-14.4l-0.7,8.8h1c1.4-1.3,3.1-2.1,5.9-2.1
		C1024.1,649,1027.9,653.6,1027.9,659.2z"/>
	<path d="M1121.9,666.2h7.2V643h-0.9l-6.4,4.3v-4l6.4-4.3h4.8v27.2h6.7v3.4h-17.8V666.2z"/>
	<path d="M1165.3,659.6c0,5.8-3.9,10.5-10.4,10.5s-11.2-4-11.2-15c0-9.3,3.6-16.7,11.6-16.7c5.2,0,8.5,3.1,9.2,7.3h-3.8
		c-0.7-2.6-2.4-3.9-5.4-3.9c-4.9,0-7.7,4.1-7.9,10.8h1c1-1.3,3.5-3,7.2-3C1161.2,649.7,1165.3,653.8,1165.3,659.6z M1161.5,659.8
		c0-4.5-3-6.8-6.7-6.8c-3.7,0-6.6,2.4-6.6,6.7c0,4.5,3,7,6.7,7C1158.6,666.8,1161.5,664.4,1161.5,659.8z"/>
	<path d="M1254.5,647.5c0.3-6.1,4.8-9,10.2-9c5.7,0,9.9,3.2,9.9,9.3c0,4.1-3.1,8-6.8,11l-7.7,6.5v1h15.4v3.4h-21v-4.3l4.5-3.7
		c2.4-2,5.3-4.4,6.9-5.9c2.1-1.9,4.8-4.4,4.8-8c0-3.8-2.4-5.9-6.2-5.9c-3.5,0-5.9,1.8-6.2,5.6H1254.5z"/>
	<path d="M1280,647.5c0.3-6.1,4.8-9,10.2-9c5.7,0,9.9,3.2,9.9,9.3c0,4.1-3.1,8-6.8,11l-7.7,6.5v1h15.4v3.4h-21v-4.3l4.5-3.7
		c2.4-2,5.3-4.4,6.9-5.9c2.1-1.9,4.8-4.4,4.8-8c0-3.8-2.4-5.9-6.2-5.9c-3.5,0-5.9,1.8-6.2,5.6H1280z"/>
</g>
<g>
	<path d="M913.2,1083.2h7.2V1060h-0.9l-6.4,4.3v-4l6.4-4.3h4.8v27.2h6.7v3.4h-17.8V1083.2z"/>
	<path d="M956.6,1076.6c0,5.8-3.9,10.5-10.4,10.5c-6.5,0-11.2-4-11.2-15c0-9.3,3.6-16.7,11.6-16.7c5.2,0,8.5,3.1,9.2,7.3H952
		c-0.7-2.6-2.4-3.9-5.4-3.9c-4.9,0-7.7,4.1-7.9,10.8h1c1-1.3,3.5-3,7.2-3C952.4,1066.7,956.6,1070.8,956.6,1076.6z M952.8,1076.8
		c0-4.5-3-6.8-6.7-6.8c-3.7,0-6.6,2.4-6.6,6.7c0,4.5,3,7,6.7,7S952.8,1081.3,952.8,1076.8z"/>
	<path d="M1052.1,1083.2h7.2V1060h-0.9l-6.4,4.3v-4l6.4-4.3h4.8v27.2h6.7v3.4h-17.8V1083.2z"/>
	<path d="M1079.9,1086.6h-4l13.3-26.3v-1h-15.5v-3.3h19.5v4.3L1079.9,1086.6z"/>
	<path d="M1188.9,1064.4c0.3-6.1,4.8-9,10.2-9c5.7,0,9.9,3.2,9.9,9.3c0,4.1-3.1,8-6.8,11l-7.7,6.5v1h15.4v3.4h-21v-4.3l4.5-3.7
		c2.4-2,5.3-4.4,6.9-5.9c2.1-1.9,4.8-4.4,4.8-8c0-3.8-2.4-5.9-6.2-5.9c-3.4,0-5.9,1.8-6.2,5.6H1188.9z"/>
	<path d="M1214.3,1064.4c0.3-6.1,4.8-9,10.2-9c5.7,0,9.9,3.2,9.9,9.3c0,4.1-3.1,8-6.8,11l-7.7,6.5v1h15.4v3.4h-21v-4.3l4.5-3.7
		c2.4-2,5.3-4.4,6.9-5.9c2.1-1.9,4.8-4.4,4.8-8c0-3.8-2.4-5.9-6.2-5.9c-3.5,0-5.9,1.8-6.2,5.6H1214.3z"/>
	<path d="M1324.7,1064.4c0.3-6.1,4.8-9,10.2-9c5.7,0,9.9,3.2,9.9,9.3c0,4.1-3.1,8-6.8,11l-7.7,6.5v1h15.4v3.4h-21v-4.3l4.5-3.7
		c2.4-2,5.3-4.4,6.9-5.9c2.1-1.9,4.8-4.4,4.8-8c0-3.8-2.4-5.9-6.2-5.9c-3.5,0-5.9,1.8-6.2,5.6H1324.7z"/>
	<path d="M1371.5,1076.2c0,6.6-4.3,10.9-10.5,10.9c-6.7,0-10.3-4-10.7-9.1h3.8c0.5,3.8,3,5.7,6.7,5.7c4.1,0,6.8-2.8,6.8-7.3
		c0-4.2-2.6-7.2-6.7-7.2c-2.8,0-4.8,1-6.1,2.9h-3.8l1.4-16.1h17.5v3.3h-14.4l-0.7,8.8h1c1.4-1.3,3.1-2.1,5.9-2.1
		C1367.8,1066,1371.5,1070.6,1371.5,1076.2z"/>
</g>
<g>
	<path d="M221.9,1083.2h7.2V1060h-0.9l-6.4,4.3v-4l6.4-4.3h4.8v27.2h6.7v3.4h-17.8V1083.2z"/>
	<path d="M243.9,1083.2h7.2V1060h-0.9l-6.4,4.3v-4l6.4-4.3h4.8v27.2h6.7v3.4h-17.8V1083.2z"/>
	<path d="M363,1083.2h7.2V1060h-0.9l-6.4,4.3v-4l6.4-4.3h4.8v27.2h6.7v3.4H363V1083.2z"/>
	<path d="M407.4,1071.3c0,11-4.8,15.9-11.3,15.9c-6.5,0-11.2-4.8-11.2-15.9s4.8-15.9,11.2-15.9
		C402.6,1055.4,407.4,1060.3,407.4,1071.3z M403.5,1071.3c0-7.6-2.3-12.5-7.4-12.5c-5.1,0-7.4,4.9-7.4,12.5c0,7.6,2.3,12.4,7.4,12.4
		C401.2,1083.7,403.5,1078.8,403.5,1071.3z"/>
	<path d="M497.4,1083.2h7.2V1060h-0.9l-6.4,4.3v-4l6.4-4.3h4.8v27.2h6.7v3.4h-17.8V1083.2z"/>
	<path d="M538.1,1056v4.3l-7.6,6.6v0.9c5.2,0.1,9.1,3.4,9.1,9.3c0,6.3-4.5,10.1-10.8,10.1c-6.2,0-10.4-3.9-10.7-9.1h3.8
		c0.3,3.5,3.2,5.7,6.9,5.7c4.2,0,6.9-2.5,6.9-6.7c0-4-2.4-6.5-6.9-6.5c-1.1,0-2,0.1-2.7,0.3v-4.1l7.5-6.5v-1h-13.4v-3.3H538.1z"/>
</g>
<g>
	<path d="M118.4,1463.6h7.2v-23.1h-0.9l-6.4,4.3v-4l6.4-4.3h4.8v27.2h6.7v3.4h-17.8V1463.6z"/>
	<path d="M162.7,1451.7c0,11-4.8,15.9-11.3,15.9c-6.5,0-11.2-4.8-11.2-15.9s4.8-15.9,11.2-15.9
		C157.9,1435.8,162.7,1440.7,162.7,1451.7z M158.9,1451.7c0-7.6-2.3-12.5-7.4-12.5c-5.1,0-7.4,4.9-7.4,12.5c0,7.6,2.3,12.4,7.4,12.4
		C156.6,1464.2,158.9,1459.3,158.9,1451.7z"/>
	<path d="M252.7,1463.6h7.2v-23.1h-0.9l-6.4,4.3v-4l6.4-4.3h4.8v27.2h6.7v3.4h-17.8V1463.6z"/>
	<path d="M274.7,1463.6h7.2v-23.1h-0.9l-6.4,4.3v-4l6.4-4.3h4.8v27.2h6.7v3.4h-17.8V1463.6z"/>
</g>
<g>
	<path d="M913.2,1463.6h7.2v-23.1h-0.9l-6.4,4.3v-4l6.4-4.3h4.8v27.2h6.7v3.4h-17.8V1463.6z"/>
	<path d="M956.6,1457.1c0,5.8-3.9,10.5-10.4,10.5c-6.5,0-11.2-4-11.2-15c0-9.3,3.6-16.7,11.6-16.7c5.2,0,8.5,3.1,9.2,7.3H952
		c-0.7-2.6-2.4-3.9-5.4-3.9c-4.9,0-7.7,4.1-7.9,10.8h1c1-1.3,3.5-3,7.2-3C952.4,1447.1,956.6,1451.3,956.6,1457.1z M952.8,1457.2
		c0-4.5-3-6.8-6.7-6.8c-3.7,0-6.6,2.4-6.6,6.7c0,4.5,3,7,6.7,7S952.8,1461.8,952.8,1457.2z"/>
	<path d="M1052.1,1463.6h7.2v-23.1h-0.9l-6.4,4.3v-4l6.4-4.3h4.8v27.2h6.7v3.4h-17.8V1463.6z"/>
	<path d="M1079.9,1467h-4l13.3-26.3v-1h-15.5v-3.3h19.5v4.3L1079.9,1467z"/>
</g>
<g>
	<path d="M810.2,1816.6h7.2v-23.1h-0.9l-6.4,4.3v-4l6.4-4.3h4.8v27.2h6.7v3.4h-17.8V1816.6z"/>
	<path d="M853.6,1810c0,5.8-3.9,10.5-10.4,10.5c-6.5,0-11.2-4-11.2-15c0-9.3,3.6-16.7,11.6-16.7c5.2,0,8.5,3.1,9.2,7.3H849
		c-0.7-2.6-2.4-3.9-5.4-3.9c-4.9,0-7.7,4.1-7.9,10.8h1c1-1.3,3.5-3,7.2-3C849.4,1800.1,853.6,1804.2,853.6,1810z M849.8,1810.2
		c0-4.5-3-6.8-6.7-6.8c-3.7,0-6.6,2.4-6.6,6.7c0,4.5,3,7,6.7,7S849.8,1814.8,849.8,1810.2z"/>
</g>
<g>
	<path d="M430.3,1810.6h7.2v-23.1h-0.9l-6.4,4.3v-4l6.4-4.3h4.8v27.2h6.7v3.4h-17.8V1810.6z"/>
	<path d="M452.3,1810.6h7.2v-23.1h-0.9l-6.4,4.3v-4l6.4-4.3h4.8v27.2h6.7v3.4h-17.8V1810.6z"/>
</g>
<g>
	<path d="M1426.2,1444.9c0.3-6.1,4.8-9,10.2-9c5.7,0,9.9,3.2,9.9,9.3c0,4.1-3.1,8-6.8,11l-7.7,6.5v1h15.4v3.4h-21v-4.3l4.5-3.7
		c2.4-2,5.3-4.4,6.9-5.9c2.1-1.9,4.8-4.4,4.8-8c0-3.8-2.4-5.9-6.2-5.9c-3.4,0-5.9,1.8-6.2,5.6H1426.2z"/>
	<path d="M1473,1456.7c0,6.6-4.3,10.9-10.5,10.9c-6.7,0-10.3-4-10.7-9.1h3.8c0.5,3.8,3,5.7,6.7,5.7c4.1,0,6.8-2.8,6.8-7.3
		c0-4.2-2.6-7.2-6.7-7.2c-2.8,0-4.8,1-6.1,2.9h-3.8l1.4-16.1h17.5v3.3H1457l-0.7,8.8h1c1.4-1.3,3.1-2.1,5.9-2.1
		C1469.3,1446.4,1473,1451,1473,1456.7z"/>
</g>
<line class="st3" x1="381.4" y1="202" x2="381.4" y2="357"/>
<line class="st3" x1="520" y1="200.6" x2="520" y2="355.6"/>
<line class="st3" x1="658.6" y1="202" x2="658.6" y2="357"/>
<line class="st3" x1="797.1" y1="200.6" x2="797.1" y2="355.6"/>
<line class="st3" x1="935.4" y1="200.6" x2="935.4" y2="355.6"/>
<line class="st3" x1="1074.1" y1="202" x2="1074.1" y2="357"/>
<line class="st3" x1="1212" y1="200.6" x2="1212" y2="355.6"/>
<line class="st3" x1="1213.8" y1="580.1" x2="1213.8" y2="735.1"/>
<line class="st3" x1="1075.1" y1="580.1" x2="1075.1" y2="735.1"/>
<line class="st3" x1="936.4" y1="580.1" x2="936.4" y2="735.1"/>
<line class="st3" x1="520" y1="580.1" x2="520" y2="735.1"/>
<line class="st3" x1="381.3" y1="577.7" x2="381.3" y2="732.7"/>
<line class="st3" x1="312" y1="995.5" x2="312" y2="1150.6"/>
<line class="st3" x1="1005.6" y1="995.5" x2="1005.6" y2="1150.6"/>
</svg>
